<svg width="20" height="20" viewBox="0 0 20 20" fill="none" xmlns="http://www.w3.org/2000/svg">
<path d="M18.85 6.8875H1.15002C2.38752 3.38125 5.63127 0.831253 9.51252 0.643753H10.4688C14.35 0.831253 17.6125 3.38125 18.85 6.8875Z" fill="#D81F26"/>
<path d="M19.375 10C19.375 11.0875 19.1875 12.1375 18.85 13.1125H1.15C0.8125 12.1375 0.625 11.0875 0.625 10C0.625 8.9125 0.8125 7.8625 1.15 6.8875H18.8312C19.1875 7.8625 19.375 8.9125 19.375 10Z" fill="#233E93"/>
<path d="M18.85 13.1125C17.6125 16.6188 14.3687 19.1688 10.4875 19.3563H9.5312C5.64995 19.1688 2.4062 16.6188 1.1687 13.1125H18.85Z" fill="#F16522"/>
</svg>
