<svg width="19" height="19" viewBox="0 0 19 19" fill="none" xmlns="http://www.w3.org/2000/svg">
<path d="M18.1535 11.7679C18.1604 11.7427 18.169 11.7182 18.1757 11.6929L18.1749 11.6925C18.3795 10.9315 18.4904 10.1322 18.4904 9.30648C18.4904 8.48282 18.3801 7.6853 18.1763 6.92577L18.1772 6.92536C18.1692 6.89554 18.1592 6.86634 18.151 6.83673C18.1231 6.73625 18.0939 6.63617 18.0624 6.53692C18.0459 6.48443 18.0283 6.43235 18.0108 6.38007C17.9959 6.33575 17.9824 6.29082 17.9669 6.24671H17.9638C17.628 5.29642 17.1429 4.4168 16.5326 3.63909L12.3647 5.72388V0.640995C11.4729 0.325663 10.5179 0.145328 9.52376 0.121841H9.08195C8.08806 0.145328 7.13318 0.325663 6.24138 0.64079V5.72388L2.07311 3.63889C1.46286 4.4168 0.977552 5.29642 0.641902 6.24671H0.63884C0.623323 6.29082 0.609644 6.33575 0.59474 6.38007C0.577181 6.43215 0.559623 6.48402 0.543086 6.5363C0.511644 6.63556 0.482448 6.73584 0.454477 6.83652C0.446311 6.86614 0.436306 6.89514 0.428344 6.92475L0.429161 6.92516C0.225606 7.6851 0.115356 8.48262 0.115356 9.30648C0.115356 10.1322 0.226219 10.9315 0.430794 11.6927L0.429977 11.6931C0.436715 11.7182 0.445086 11.7425 0.452027 11.7677C0.481836 11.8747 0.512869 11.9813 0.546352 12.0867C0.561665 12.1349 0.577794 12.1827 0.593923 12.2307C0.609644 12.2778 0.62414 12.3254 0.640677 12.3722H0.644148C0.980411 13.3221 1.46592 14.2011 2.07658 14.9784L6.24158 12.8952V17.9724C7.19933 18.3108 8.22914 18.4968 9.30286 18.4968C10.3768 18.4968 11.4068 18.3108 12.3647 17.972V12.8952L16.5293 14.9782C17.14 14.2009 17.6253 13.3219 17.9616 12.3722H17.9646C17.9812 12.3254 17.9957 12.2776 18.0116 12.2304C18.0277 12.1827 18.0438 12.1349 18.0592 12.0867C18.0926 11.9811 18.1239 11.8747 18.1535 11.7679Z" fill="#F3F4F5"/>
<path d="M11.1402 0.300339C10.6165 0.193935 10.0758 0.134912 9.52376 0.121841H9.08195C8.53009 0.134912 7.98966 0.194139 7.46617 0.300339V7.47209H0.298902C0.178852 8.06476 0.115356 8.67827 0.115356 9.30648C0.115356 9.93694 0.179056 10.5523 0.299923 11.147H7.46617V18.3128C8.05969 18.4333 8.67382 18.4968 9.30286 18.4968C9.9321 18.4968 10.5464 18.4333 11.1402 18.3126V11.147H18.3058C18.4267 10.5523 18.4904 9.93694 18.4904 9.30648C18.4904 8.67827 18.4269 8.06476 18.3068 7.47188H11.1402V0.300339Z" fill="#CC0000"/>
<path d="M17.519 13.4187C17.6883 13.0811 17.8375 12.7318 17.9649 12.372H15.4265L17.519 13.4187Z" fill="#CC0000"/>
<path d="M16.9011 4.13966L12.6881 6.24691H15.4264L17.5213 5.19901C17.3374 4.83139 17.1308 4.47726 16.9011 4.13966Z" fill="#CC0000"/>
<path d="M1.08441 5.19881C0.915154 5.53681 0.766112 5.88665 0.638916 6.24692H3.17977L1.08441 5.19881Z" fill="#CC0000"/>
<path d="M1.70787 14.4778L5.91819 12.372H3.17991L1.08679 13.4189C1.27115 13.7865 1.47798 14.1406 1.70787 14.4778Z" fill="#CC0000"/>
<path d="M2.07312 3.63888L6.24139 5.72366V4.90878V0.643845C4.58131 1.2308 3.13969 2.27952 2.07312 3.63888Z" fill="#000066"/>
<path d="M12.3647 0.644058V5.1988V5.72367L16.5326 3.63909C15.4662 2.27974 14.0248 1.23102 12.3647 0.644058Z" fill="#000066"/>
<path d="M6.24166 14.978V12.8952L2.07666 14.9784C3.14282 16.3357 4.58301 17.383 6.24166 17.9695V14.978Z" fill="#000066"/>
<path d="M12.3647 12.8952V14.7937V17.9691C14.0232 17.3826 15.4632 16.3353 16.5293 14.978L12.3647 12.8952Z" fill="#000066"/>
</svg>
