<svg width="20" height="20" viewBox="0 0 20 20" fill="none" xmlns="http://www.w3.org/2000/svg">
<path d="M18.8313 6.86875H1.15002C1.33752 6.325 1.58127 5.8 1.86252 5.3125C3.49377 2.5 6.53127 0.625 10 0.625C13.4688 0.625 16.5063 2.5 18.1188 5.3125C18.4 5.8 18.6438 6.325 18.8313 6.86875Z" fill="white"/>
<path d="M19.375 9.99999C19.375 11.0875 19.1875 12.1562 18.8312 13.1312H1.15C0.8125 12.1562 0.625 11.0875 0.625 9.99999C0.625 8.91249 0.8125 7.84374 1.15 6.86874H18.8312C19.1875 7.84374 19.375 8.91249 19.375 9.99999Z" fill="#35469C"/>
<path d="M18.8312 13.1313C18.6437 13.675 18.4 14.2 18.1187 14.6875C16.5062 17.5 13.4687 19.375 9.99995 19.375C6.5312 19.375 3.4937 17.5 1.8812 14.6875C1.59995 14.2 1.3562 13.675 1.1687 13.1313H18.8312Z" fill="#ED2424"/>
</svg>
