<svg width="182" height="186" viewBox="0 0 182 186" fill="none" xmlns="http://www.w3.org/2000/svg">
<path d="M69.1501 49.47C69.1501 49.47 79.8934 51.9979 86.5596 43.373C86.5596 43.373 86.1875 55.3367 98.9096 58.8077C98.9096 58.8077 103.623 48.6231 97.6288 41.0978C97.6288 41.0978 107.365 43.5858 113.093 36.2837C113.093 36.2837 109.417 27.6166 97.2147 29.8464C97.2147 29.8464 102.957 19.1903 97.8725 11.0314C97.8725 11.0314 89.6762 13.9856 85.9857 23.8408C85.9857 23.8408 81.2614 16.1196 72.0068 17.2324C72.0068 17.2324 68.8248 29.4318 80.7345 34.2284C80.7345 34.2262 67.6898 36.0747 69.1501 49.47Z" fill="#FFDEF0"/>
<path d="M-2.23181 129.489V153.135C-2.23181 153.135 20.8074 154.547 37.4447 136.133C40.9915 132.208 46.0729 124.238 48.2439 119.448C54.0853 106.558 81.8046 53.3421 142.741 56.9652C142.741 56.9652 160.847 58.7891 170.67 67.826C171.064 68.1872 171.543 68.4483 172.064 68.5864C172.585 68.7244 173.133 68.7353 173.66 68.6179C174.186 68.5005 174.675 68.2585 175.084 67.9131C175.493 67.5677 175.809 67.1294 176.004 66.6367C176.197 66.1554 176.269 65.6359 176.214 65.1218C176.159 64.6077 175.978 64.1141 175.688 63.6826C171.66 57.7196 153.244 36.4462 102.49 50.3568C102.49 50.3568 87.2995 53.7425 70.0833 67.5694L57.3885 75.4022C54.0786 81.3548 49.2951 89.0541 44.5479 96.7588C39.5945 104.801 33.5424 113.575 25.9485 119.309C18.6503 124.822 8.88878 128.304 -2.23181 129.489Z" fill="#2F2105"/>
<path d="M21.2947 166.218C21.127 160.994 22.077 152.567 28.9505 147.413C28.9505 147.413 20.8733 147.912 14.173 138.223C13.8346 137.723 13.6074 137.16 13.5063 136.569C13.4051 135.978 13.4323 135.372 13.5861 134.792C13.7398 134.212 14.0166 133.67 14.3985 133.202C14.7804 132.733 15.2588 132.349 15.8025 132.074C20.709 129.557 29.7374 126.603 39.6643 131.636C39.5027 127.663 40.3729 123.715 42.1936 120.16C44.0143 116.606 46.726 113.561 50.0752 111.312C51.0176 110.671 52.1801 110.421 53.3102 110.614C54.4403 110.808 55.4466 111.431 56.1105 112.347C59.0627 116.459 62.6532 124.483 56.2597 134.474C56.2597 134.474 66.8131 130.417 76.056 135.988C76.6043 136.322 77.0695 136.772 77.4177 137.305C77.766 137.837 77.9885 138.439 78.0692 139.066C78.1498 139.694 78.0864 140.331 77.8838 140.931C77.6811 141.532 77.3442 142.08 76.8976 142.537C73.5385 145.951 66.9897 150.455 56.0362 150.042C58.8398 152.807 60.9181 156.194 62.0933 159.916C63.2685 163.638 63.5057 167.582 62.7845 171.413C62.6783 172.013 62.4424 172.585 62.0927 173.088C61.7429 173.592 61.2874 174.017 60.7564 174.335C60.2255 174.652 59.6314 174.855 59.0138 174.93C58.3963 175.005 57.7696 174.95 57.1756 174.768C52.2272 173.221 44.6641 169.089 42.6059 158.15C42.6059 158.15 37.0473 167.549 26.8074 170.185C26.1728 170.353 25.5075 170.38 24.8611 170.261C24.2147 170.143 23.6038 169.884 23.074 169.503C22.5442 169.121 22.109 168.628 21.801 168.059C21.4929 167.49 21.3198 166.861 21.2947 166.218Z" fill="#FFDEF0"/>
<path d="M31.8899 98.5953C31.8899 98.5953 45.3889 97.0849 48.2819 83.1135C48.2819 83.1135 46.5462 96.8901 68.3381 99.4411C68.3381 99.4411 72.0023 84.8127 57.3455 76.3169C57.3455 76.3169 70.3158 79.3378 78.1013 66.6887C78.1013 66.6887 72.1951 58.7596 57.5366 62.7241C57.5366 62.7241 60.044 51.5855 51.9444 44.4119C51.9444 44.4119 39.6017 46.866 42.6875 64.612C42.6875 64.612 29.7664 57.4379 18.9671 67.8216C18.9671 67.8216 23.0169 78.5823 39.2161 77.0724C39.2206 77.0735 25.9116 81.4155 31.8899 98.5953Z" fill="#FFABD1"/>
<path d="M118.652 49.4623C118.652 49.4623 129.05 54.6714 138.088 47.4289C138.088 47.4289 134.672 59.6316 146.862 66.2915C146.862 66.2915 154.288 56.9713 150.038 47.7818C150.038 47.7818 159.411 52.7053 167.15 46.5914C167.15 46.5914 165.571 36.7919 152.466 36.1168C152.466 36.1168 161.069 26.563 157.914 16.943C157.914 16.943 148.742 17.9862 142.451 27.2167C142.451 27.2167 139.233 17.4003 128.597 16.943C128.597 16.943 122.841 28.4268 133.864 36.2542C133.866 36.2514 120.549 35.34 118.652 49.4623Z" fill="#FFDEF0"/>
<path d="M87.8181 92.5591C87.8181 92.5591 101.012 95.1122 108.683 84.2985C108.683 84.2985 108.837 98.8672 124.485 102.471C124.485 102.471 129.701 89.8555 122.03 80.9948C122.03 80.9948 133.997 83.5479 140.594 74.3863C140.594 74.3863 135.685 64.0234 120.956 67.3293C120.956 67.3293 127.4 54.0904 120.803 44.4146C120.803 44.4146 110.984 48.4054 106.995 60.5703C106.995 60.5703 100.859 51.4093 89.6594 53.2113C89.6594 53.2113 86.0751 67.8391 100.803 73.0958C100.803 73.0942 85.3638 76.3388 87.8181 92.5591ZM22.7845 39.0184C22.7845 39.0184 20.0753 20.4529 37.2982 19.1268C37.2982 19.1268 40.9747 33.5243 22.7845 39.0184ZM103.094 133.548C103.094 133.548 110.254 114.415 134.25 128.624C134.248 128.623 126.314 145.862 103.094 133.548Z" fill="#FFABD1"/>
<path d="M162.501 97.2238C162.501 97.2238 155.147 91.3041 156.115 83.5359C156.115 83.5359 157.083 76.5264 163.856 74.4427C163.856 74.4432 174.305 86.0945 162.501 97.2238Z" fill="#FFD2E9"/>
<path d="M6.12763 80.9647C5.83486 80.9647 5.54497 81.0212 5.27455 81.1311C5.00414 81.2409 4.75851 81.4019 4.55175 81.6048C4.44532 81.7047 4.35151 81.8167 4.27233 81.9385C4.1896 82.0566 4.12027 82.1831 4.06557 82.316C4.00922 82.4464 3.96635 82.582 3.9376 82.7208C3.90872 82.8631 3.89356 83.0078 3.89233 83.153C3.89258 83.4764 3.96608 83.7958 4.10752 84.0881C4.24897 84.3804 4.45486 84.6384 4.71036 84.8435C4.96587 85.0486 5.26464 85.1956 5.58517 85.2741C5.9057 85.3526 6.24002 85.3606 6.56407 85.2974C6.70789 85.2697 6.84835 85.2273 6.98319 85.1711C7.11886 85.1181 7.24802 85.0504 7.36822 84.9692C7.49284 84.8918 7.60748 84.7999 7.70966 84.6957C8.02074 84.3893 8.23225 83.9997 8.31753 83.5759C8.4028 83.152 8.35804 82.713 8.18887 82.314C8.01969 81.9151 7.73369 81.574 7.36688 81.3339C7.00008 81.0938 6.56888 80.9653 6.12763 80.9647Z" fill="#FFABD1"/>
<path d="M79.1994 162.854C78.6065 162.854 78.038 163.084 77.6188 163.495C77.1996 163.905 76.9641 164.462 76.9641 165.042C76.9654 165.186 76.9803 165.329 77.0088 165.469C77.038 165.61 77.0812 165.747 77.1379 165.88C77.1937 166.011 77.2608 166.137 77.3385 166.257C77.4224 166.375 77.5158 166.487 77.6179 166.59C78.0378 167 78.6065 167.23 79.1994 167.23C79.7923 167.23 80.361 167 80.7808 166.59C80.8829 166.488 80.9748 166.377 81.0552 166.257C81.1366 166.138 81.2059 166.012 81.262 165.88C81.3746 165.614 81.4332 165.33 81.4347 165.042C81.4339 164.899 81.4189 164.756 81.39 164.616C81.3615 164.475 81.3186 164.338 81.262 164.206C81.2072 164.073 81.1379 163.946 81.0552 163.828C80.9761 163.708 80.8841 163.596 80.7808 163.495C80.3591 163.087 79.7917 162.858 79.1994 162.854ZM147.476 133.537C147.33 133.535 147.184 133.55 147.041 133.581C146.897 133.609 146.757 133.651 146.622 133.707C146.488 133.761 146.358 133.827 146.235 133.904C146.115 133.986 146.001 134.077 145.894 134.177C145.791 134.279 145.7 134.391 145.621 134.511C145.539 134.63 145.469 134.756 145.414 134.889C145.357 135.021 145.314 135.158 145.285 135.299C145.257 135.44 145.242 135.583 145.241 135.726C145.244 136.306 145.479 136.861 145.894 137.274C146 137.374 146.114 137.465 146.235 137.548C146.358 137.624 146.487 137.69 146.621 137.744C146.757 137.8 146.897 137.842 147.041 137.87C147.401 137.939 147.773 137.921 148.124 137.817C148.476 137.713 148.796 137.527 149.057 137.274C149.16 137.171 149.253 137.059 149.337 136.94C149.417 136.821 149.486 136.694 149.544 136.563C149.599 136.431 149.64 136.293 149.666 136.153C149.726 135.871 149.726 135.581 149.666 135.299C149.64 135.158 149.599 135.021 149.544 134.889C149.486 134.757 149.417 134.631 149.337 134.511C149.255 134.392 149.161 134.28 149.057 134.177C148.636 133.77 148.068 133.541 147.476 133.537Z" fill="#FFDEF0"/>
<path d="M116.132 14.7547C115.986 14.7557 115.84 14.7704 115.697 14.7985C115.553 14.8261 115.412 14.8683 115.278 14.9243C115.142 14.9787 115.013 15.0465 114.891 15.1267C114.769 15.2053 114.655 15.2951 114.551 15.3948C114.449 15.4971 114.357 15.6088 114.277 15.7285C114.195 15.8468 114.126 15.9733 114.071 16.1059C114.013 16.2379 113.97 16.3755 113.941 16.5162C113.882 16.7977 113.882 17.0882 113.941 17.3697C113.97 17.5104 114.013 17.648 114.071 17.7799C114.126 17.9126 114.195 18.0391 114.277 18.1574C114.357 18.2771 114.449 18.3888 114.551 18.4911C114.657 18.5908 114.771 18.6822 114.891 18.7646C115.014 18.8408 115.143 18.9067 115.278 18.9616C115.412 19.0176 115.553 19.0598 115.697 19.0874C116.057 19.1574 116.429 19.1397 116.781 19.0357C117.133 18.9317 117.453 18.7447 117.713 18.4911C117.816 18.3875 117.909 18.2759 117.993 18.1574C118.073 18.0379 118.142 17.9115 118.2 17.7799C118.255 17.6477 118.296 17.5102 118.323 17.3697C118.354 17.2296 118.369 17.0864 118.367 16.9429C118.368 16.6555 118.31 16.3708 118.198 16.1051C118.086 15.8395 117.921 15.5981 117.713 15.3948C117.506 15.1916 117.259 15.0304 116.988 14.9205C116.716 14.8107 116.426 14.7544 116.132 14.7547Z" fill="#FFABD1"/>
<path d="M52.0931 145.752C50.0137 146.265 48.3333 146.588 46.9989 146.792C47.6915 147.652 48.4381 148.468 49.2342 149.238C49.6553 149.646 49.8934 150.202 49.8961 150.782C49.8989 151.362 49.666 151.92 49.2487 152.332C48.8314 152.745 48.2639 152.978 47.6711 152.98C47.0782 152.983 46.5086 152.755 46.0874 152.347C44.841 151.145 43.7024 149.841 42.6842 148.449L39.4732 151.59C39.2684 151.805 39.0216 151.977 38.7474 152.096C38.4733 152.215 38.1774 152.279 37.8774 152.284C37.5774 152.289 37.2795 152.235 37.0014 152.125C36.7232 152.015 36.4706 151.851 36.2585 151.643C36.0464 151.436 35.8792 151.188 35.7669 150.916C35.6545 150.644 35.5993 150.352 35.6046 150.058C35.6098 149.765 35.6754 149.475 35.7974 149.207C35.9194 148.938 36.0953 148.697 36.3147 148.496L39.4665 145.408L35.2194 142.99C34.9656 142.846 34.7434 142.654 34.5655 142.425C34.3875 142.197 34.2572 141.936 34.1821 141.658C34.1071 141.38 34.0886 141.091 34.1278 140.806C34.1671 140.521 34.2632 140.247 34.4108 139.998C34.5584 139.75 34.7545 139.532 34.988 139.358C35.2214 139.184 35.4876 139.056 35.7714 138.983C36.0552 138.909 36.351 138.891 36.642 138.93C36.9329 138.968 37.2132 139.062 37.467 139.207L41.6744 141.602C42.1798 139.737 42.6975 137.876 43.2274 136.017C43.3039 135.738 43.4361 135.477 43.6165 135.248C43.7969 135.019 44.0218 134.827 44.2782 134.684C44.5346 134.541 44.8175 134.449 45.1106 134.413C45.4036 134.377 45.7009 134.399 45.9854 134.476C46.2699 134.554 46.5358 134.686 46.7679 134.864C47.0001 135.043 47.1937 135.265 47.3377 135.517C47.4817 135.77 47.5732 136.047 47.607 136.335C47.6407 136.622 47.616 136.913 47.5342 137.19C47.0303 138.959 46.5372 140.731 46.055 142.506C47.2772 142.327 48.9095 142.024 51.0012 141.507C51.1806 141.463 51.3649 141.441 51.5499 141.44C52.0955 141.44 52.6223 141.635 53.0312 141.989C53.4401 142.342 53.7028 142.83 53.7697 143.36C53.8367 143.89 53.7034 144.426 53.3949 144.866C53.0864 145.307 52.624 145.621 52.0948 145.751L52.0931 145.752Z" fill="#F982AA"/>
<path d="M55.0046 74.3655C53.8493 74.4478 52.7005 74.6012 51.565 74.8251C51.9627 75.4993 52.4476 76.1205 53.0079 76.673C53.2154 76.8763 53.38 77.1175 53.4923 77.3831C53.6046 77.6486 53.6624 77.9331 53.6623 78.2205C53.6623 78.5079 53.6044 78.7924 53.492 79.0579C53.3796 79.3234 53.2149 79.5646 53.0073 79.7677C52.7997 79.9709 52.5533 80.1321 52.282 80.242C52.0108 80.3519 51.7201 80.4085 51.4266 80.4084C51.133 80.4084 50.8424 80.3517 50.5712 80.2417C50.3 80.1317 50.0536 79.9704 49.8461 79.7672C49.2334 79.1668 48.6804 78.5106 48.1947 77.8076C47.7827 78.2709 47.3466 78.7131 46.8882 79.1326C46.6731 79.3339 46.419 79.4912 46.141 79.5951C45.863 79.699 45.5665 79.7475 45.2691 79.7378C44.9716 79.7281 44.6791 79.6603 44.4088 79.5384C44.1385 79.4166 43.8957 79.2431 43.6948 79.0282C43.4938 78.8133 43.3388 78.5612 43.2387 78.2869C43.1385 78.0125 43.0954 77.7213 43.1118 77.4304C43.1282 77.1395 43.2037 76.8547 43.334 76.5928C43.4643 76.3308 43.6467 76.097 43.8706 75.905C43.8789 75.8973 44.3064 75.5078 44.8334 74.9203C43.907 74.6488 43.0035 74.3075 42.1309 73.8995C41.8664 73.7748 41.6296 73.6005 41.4339 73.3862C41.2382 73.172 41.0876 72.9222 40.9905 72.651C40.8935 72.3797 40.852 72.0925 40.8683 71.8055C40.8847 71.5186 40.9587 71.2377 41.0859 70.9787C41.2132 70.7198 41.3914 70.4879 41.6102 70.2963C41.829 70.1048 42.0843 69.9573 42.3613 69.8623C42.6383 69.7673 42.9318 69.7267 43.2249 69.7427C43.518 69.7587 43.805 69.8311 44.0695 69.9557C44.8375 70.3136 45.6364 70.6041 46.4568 70.8239C46.4742 69.8214 46.4268 68.8188 46.3149 67.8222C46.2521 67.2482 46.4235 66.6732 46.7918 66.2224C47.1601 65.7716 47.6954 65.4815 48.2812 65.4154C48.867 65.3492 49.4558 65.5123 49.9192 65.8691C50.3827 66.226 50.6834 66.7476 50.7558 67.3205C50.8755 68.3704 50.9335 69.4261 50.9296 70.4825C52.1605 70.2538 53.4036 70.0938 54.6531 70.0033C54.7129 69.9984 54.7721 69.9962 54.8313 69.9962C55.408 69.9979 55.9617 70.2177 56.3767 70.6097C56.7917 71.0016 57.0359 71.5354 57.0582 72.0995C57.0806 72.6636 56.8794 73.2144 56.4967 73.6367C56.114 74.059 55.5794 74.3201 55.0046 74.3655Z" fill="#F45885"/>
<path d="M94.3027 37.5107L92.3842 37.6803L92.7486 38.8893C92.836 39.1661 92.8663 39.4571 92.8379 39.7454C92.8095 40.0338 92.7229 40.3137 92.5831 40.5691C92.4433 40.8244 92.2531 41.05 92.0236 41.2328C91.794 41.4156 91.5297 41.552 91.2459 41.634C90.9621 41.716 90.6644 41.7421 90.3703 41.7106C90.0761 41.6792 89.7912 41.5909 89.5322 41.4508C89.2732 41.3108 89.0451 41.1217 88.8613 40.8947C88.6775 40.6677 88.5415 40.4072 88.4613 40.1284L88.1361 39.0501L86.6502 39.9079C86.1395 40.2028 85.5301 40.2869 84.9561 40.1419C84.382 39.9969 83.8904 39.6346 83.5892 39.1347C83.288 38.6348 83.2021 38.0382 83.3502 37.4763C83.4983 36.9143 83.8684 36.433 84.3791 36.1381L85.8784 35.2727L84.601 33.992C84.3959 33.7864 84.2343 33.5432 84.1252 33.2764C84.0162 33.0096 83.9619 32.7244 83.9654 32.437C83.969 32.1497 84.0303 31.8659 84.1459 31.6017C84.2615 31.3376 84.4292 31.0983 84.6392 30.8976C84.8493 30.6969 85.0977 30.5386 85.3702 30.4319C85.6428 30.3251 85.9341 30.272 86.2277 30.2755C86.5212 30.2789 86.8111 30.339 87.0809 30.4522C87.3508 30.5653 87.5952 30.7294 87.8002 30.9351L88.1914 31.3262L88.4753 30.091C88.5374 29.8084 88.656 29.5406 88.8244 29.3031C88.9928 29.0657 89.2076 28.8632 89.4563 28.7075C89.7051 28.5518 89.9829 28.4458 90.2737 28.3958C90.5646 28.3458 90.8626 28.3526 91.1507 28.416C91.4388 28.4794 91.7112 28.598 91.9522 28.7651C92.1932 28.9321 92.398 29.1442 92.5548 29.3892C92.7116 29.6341 92.8172 29.9071 92.8657 30.1922C92.9141 30.4774 92.9043 30.7691 92.8369 31.0505L92.3222 33.2934L93.902 33.1539C93.9702 33.1479 94.0384 33.1452 94.1054 33.1452C94.6798 33.147 95.2314 33.3653 95.6458 33.7546C96.0602 34.1439 96.3056 34.6745 96.3312 35.2362C96.3567 35.7979 96.1603 36.3477 95.7829 36.7715C95.4054 37.1953 94.8757 37.4606 94.3038 37.5124L94.3027 37.5107Z" fill="#F982AA"/>
<path d="M117.913 76.1298L114.773 76.3814L116.158 79.7634C116.267 80.0301 116.321 80.3153 116.318 80.6026C116.315 80.89 116.253 81.1739 116.138 81.4381C116.023 81.7023 115.855 81.9416 115.645 82.1425C115.435 82.3433 115.187 82.5017 114.914 82.6086C114.642 82.7155 114.351 82.7688 114.057 82.7655C113.764 82.7622 113.474 82.7023 113.204 82.5893C112.934 82.4763 112.689 82.3123 112.484 82.1068C112.279 81.9012 112.117 81.6582 112.008 81.3914L110.54 77.8076C109.444 78.4804 108.292 79.0645 107.099 79.5544C106.548 79.7632 105.935 79.7501 105.394 79.5179C104.853 79.2857 104.428 78.8533 104.212 78.3152C103.995 77.7772 104.005 77.1771 104.239 76.6463C104.474 76.1154 104.913 75.6968 105.461 75.4821C106.383 75.0945 107.273 74.6399 108.125 74.1221L104.682 70.6756C104.472 70.471 104.306 70.2278 104.193 69.9599C104.08 69.692 104.023 69.4048 104.025 69.115C104.026 68.8253 104.086 68.5387 104.202 68.2719C104.317 68.0051 104.486 67.7634 104.698 67.5609C104.909 67.3584 105.16 67.199 105.435 67.0921C105.71 66.9852 106.004 66.9328 106.3 66.938C106.596 66.9433 106.888 67.006 107.159 67.1225C107.43 67.2391 107.675 67.4072 107.879 67.617L110.368 70.1105C110.655 68.8622 110.819 67.59 110.858 66.3112C110.853 65.7309 111.084 65.1726 111.5 64.7591C111.916 64.3455 112.483 64.1106 113.075 64.106H113.094C113.683 64.106 114.249 64.3341 114.668 64.7407C115.087 65.1473 115.324 65.6994 115.329 66.2767C115.268 68.2116 114.997 70.1346 114.522 72.0137L117.548 71.7708C117.61 71.7659 117.672 71.7637 117.733 71.7637C118.309 71.7653 118.862 71.9846 119.277 72.3758C119.692 72.767 119.937 73.3 119.96 73.8635C119.984 74.427 119.784 74.9776 119.402 75.4004C119.021 75.8231 118.488 76.0854 117.914 76.1325L117.913 76.1298Z" fill="#F45885"/>
<path d="M151.012 42.1898C150.857 42.7498 150.481 43.2265 149.967 43.5151C149.452 43.8036 148.842 43.8805 148.27 43.7286L145.137 42.8971V45.017C145.137 45.5973 144.902 46.1539 144.483 46.5643C144.063 46.9747 143.495 47.2052 142.902 47.2052C142.309 47.2052 141.741 46.9747 141.321 46.5643C140.902 46.1539 140.667 45.5973 140.667 45.017V42.9146L137.683 43.7259C137.4 43.8027 137.105 43.8243 136.813 43.7893C136.522 43.7543 136.24 43.6635 135.985 43.522C135.729 43.3805 135.505 43.1912 135.324 42.9647C135.143 42.7383 135.01 42.4793 134.931 42.2024C134.853 41.9254 134.831 41.6361 134.867 41.3509C134.902 41.0656 134.995 40.7901 135.14 40.5399C135.284 40.2898 135.478 40.07 135.709 39.893C135.94 39.7161 136.205 39.5855 136.488 39.5086L139.485 38.6941L137.87 36.0381C137.72 35.7911 137.621 35.5176 137.578 35.2332C137.536 34.9488 137.552 34.6591 137.624 34.3805C137.696 34.102 137.824 33.8401 137.999 33.6098C138.175 33.3795 138.395 33.1853 138.647 33.0383C138.9 32.8913 139.179 32.7944 139.469 32.7531C139.76 32.7118 140.056 32.7269 140.341 32.7976C140.625 32.8683 140.893 32.9932 141.128 33.1651C141.363 33.337 141.561 33.5526 141.712 33.7995L142.859 35.6874L143.936 33.8362C144.081 33.5864 144.275 33.3671 144.507 33.1908C144.739 33.0144 145.004 32.8845 145.287 32.8085C145.57 32.7324 145.865 32.7116 146.157 32.7474C146.448 32.7832 146.729 32.8748 146.984 33.0169C147.24 33.1591 147.464 33.3491 147.644 33.576C147.824 33.803 147.957 34.0624 148.034 34.3395C148.112 34.6167 148.133 34.9061 148.097 35.1912C148.06 35.4764 147.966 35.7517 147.821 36.0014L146.273 38.6645L149.44 39.5053C150.012 39.6573 150.499 40.0255 150.794 40.5289C151.089 41.0323 151.167 41.6297 151.012 42.1898Z" fill="#F982AA"/>
</svg>
