<svg width="180" height="192" viewBox="0 0 180 192" fill="none" xmlns="http://www.w3.org/2000/svg">
<path d="M116.414 140.934C116.414 140.934 105.331 138.325 98.4542 147.228C98.4542 147.228 98.8382 134.878 85.7142 131.295C85.7142 131.295 80.8523 141.808 87.0355 149.576C87.0355 149.576 76.9922 147.008 71.0828 154.546C71.0828 154.546 74.8749 163.493 87.4627 161.191C87.4627 161.191 81.5394 172.191 86.7842 180.613C86.7842 180.613 95.2393 177.563 99.0463 167.39C99.0463 167.39 103.92 175.36 113.467 174.212C113.467 174.212 116.749 161.619 104.463 156.667C104.463 156.67 117.92 154.762 116.414 140.934Z" fill="#FFDEF0"/>
<path d="M190.05 58.3341V33.9247C190.05 33.9247 166.283 32.4678 149.12 51.4758C145.461 55.5275 140.22 63.7542 137.98 68.6993C131.954 82.0043 103.359 136.937 40.4988 133.197C40.4988 133.197 21.8212 131.314 11.688 121.986C11.2813 121.613 10.7875 121.344 10.2498 121.201C9.71204 121.059 9.14685 121.047 8.60371 121.169C8.06058 121.29 7.55608 121.54 7.13438 121.896C6.71271 122.253 6.3867 122.705 6.18497 123.214C5.98621 123.711 5.91214 124.247 5.96902 124.777C6.02591 125.308 6.21205 125.818 6.51183 126.263C10.667 132.418 29.664 154.378 82.0208 140.019C82.0208 140.019 97.691 136.524 115.451 122.251L128.547 114.165C131.961 108.021 136.896 100.073 141.793 92.1199C146.903 83.8187 153.146 74.7614 160.979 68.8422C168.508 63.1511 178.578 59.5567 190.05 58.3341Z" fill="#2F2105"/>
<path d="M165.78 20.4203C165.953 25.8127 164.973 34.5114 157.883 39.8315C157.883 39.8315 166.215 39.3165 173.127 49.3186C173.476 49.8341 173.71 50.4158 173.815 51.026C173.919 51.6361 173.891 52.2609 173.732 52.8597C173.574 53.4585 173.288 54.0179 172.894 54.5014C172.5 54.9849 172.007 55.3817 171.446 55.6659C166.384 58.2635 157.071 61.3129 146.83 56.1176C146.997 60.2189 146.099 64.2946 144.221 67.9637C142.343 71.6328 139.546 74.7753 136.091 77.0976C135.119 77.7588 133.919 78.0174 132.754 77.8174C131.588 77.6173 130.55 76.9747 129.865 76.0292C126.819 71.7843 123.116 63.5012 129.711 53.188C129.711 53.188 118.824 57.3758 109.29 51.6254C108.724 51.2803 108.244 50.816 107.885 50.2662C107.526 49.7165 107.296 49.0951 107.213 48.4475C107.13 47.7999 107.195 47.1422 107.404 46.5224C107.613 45.9026 107.961 45.3363 108.421 44.8648C111.887 41.341 118.642 36.6918 129.942 37.1176C127.049 34.2642 124.905 30.7672 123.693 26.9255C122.481 23.0839 122.236 19.0118 122.98 15.0573C123.09 14.4378 123.333 13.8483 123.694 13.3282C124.055 12.8082 124.525 12.3696 125.072 12.0417C125.62 11.7139 126.233 11.5043 126.87 11.4271C127.507 11.3499 128.153 11.4068 128.766 11.594C133.871 13.1915 141.673 17.4568 143.796 28.7486C143.796 28.7486 149.53 19.0464 160.093 16.3251C160.748 16.1513 161.434 16.1243 162.101 16.2463C162.768 16.3683 163.398 16.636 163.945 17.0296C164.491 17.4232 164.94 17.9325 165.258 18.5195C165.576 19.1066 165.754 19.7563 165.78 20.4203Z" fill="#FFDEF0"/>
<path d="M154.85 90.2242C154.85 90.2242 140.925 91.7833 137.941 106.205C137.941 106.205 139.731 91.9844 117.251 89.3512C117.251 89.3512 113.471 104.451 128.591 113.221C128.591 113.221 115.211 110.103 107.18 123.16C107.18 123.16 113.272 131.345 128.394 127.253C128.394 127.253 125.807 138.75 134.163 146.155C134.163 146.155 146.895 143.622 143.712 125.304C143.712 125.304 157.041 132.709 168.181 121.991C168.181 121.991 164.004 110.883 147.293 112.441C147.288 112.44 161.017 107.958 154.85 90.2242Z" fill="#FFABD1"/>
<path d="M65.3488 140.942C65.3488 140.942 54.6218 135.565 45.2985 143.041C45.2985 143.041 48.8231 130.445 36.2479 123.57C36.2479 123.57 28.5872 133.191 32.9719 142.677C32.9719 142.677 23.3027 137.595 15.3192 143.906C15.3192 143.906 16.9477 154.021 30.4665 154.718C30.4665 154.718 21.5918 164.58 24.8465 174.51C24.8465 174.51 34.3081 173.434 40.798 163.905C40.798 163.905 44.1173 174.038 55.0899 174.51C55.0899 174.51 61.0275 162.656 49.6561 154.576C49.6538 154.579 63.3916 155.52 65.3488 140.942Z" fill="#FFDEF0"/>
<path d="M97.156 96.4552C97.156 96.4552 83.545 93.8197 75.6324 104.982C75.6324 104.982 75.4738 89.9435 59.3309 86.2232C59.3309 86.2232 53.9501 99.2459 61.8634 108.392C61.8634 108.392 49.5188 105.757 42.7136 115.214C42.7136 115.214 47.7779 125.911 62.9713 122.499C62.9713 122.499 56.324 136.165 63.1293 146.153C63.1293 146.153 73.2584 142.033 77.3733 129.476C77.3733 129.476 83.7035 138.932 95.2566 137.072C95.2566 137.072 98.954 121.973 83.7606 116.546C83.7612 116.548 99.6879 113.199 97.156 96.4552ZM164.243 151.723C164.243 151.723 167.038 170.887 149.271 172.256C149.271 172.256 145.479 157.394 164.243 151.723ZM81.3976 54.144C81.3976 54.144 74.0113 73.894 49.2582 59.2264C49.26 59.2281 57.4447 41.433 81.3976 54.144Z" fill="#FFABD1"/>
<path d="M20.1148 91.6399C20.1148 91.6399 27.7006 97.7506 26.7027 105.769C26.7027 105.769 25.7043 113.005 18.7175 115.156C18.7175 115.155 7.93804 103.128 20.1148 91.6399Z" fill="#FFD2E9"/>
<path d="M181.426 108.424C181.728 108.424 182.027 108.365 182.306 108.252C182.585 108.138 182.839 107.972 183.052 107.763C183.162 107.66 183.259 107.544 183.34 107.418C183.426 107.296 183.497 107.166 183.553 107.029C183.612 106.894 183.656 106.754 183.685 106.611C183.715 106.464 183.731 106.315 183.732 106.165C183.732 105.831 183.656 105.501 183.51 105.199C183.364 104.898 183.152 104.631 182.888 104.42C182.625 104.208 182.317 104.056 181.986 103.975C181.655 103.894 181.31 103.886 180.976 103.951C180.828 103.98 180.683 104.023 180.544 104.082C180.404 104.136 180.271 104.206 180.147 104.29C180.018 104.37 179.9 104.465 179.794 104.572C179.473 104.888 179.255 105.291 179.167 105.728C179.079 106.166 179.125 106.619 179.3 107.031C179.474 107.443 179.77 107.795 180.148 108.042C180.526 108.29 180.971 108.423 181.426 108.424Z" fill="#FFABD1"/>
<path d="M106.047 23.8927C106.658 23.8927 107.245 23.6547 107.677 23.2311C108.11 22.8075 108.353 22.233 108.353 21.6339C108.351 21.4858 108.336 21.3381 108.307 21.1928C108.277 21.0477 108.232 20.9059 108.173 20.7693C108.116 20.6339 108.047 20.5036 107.967 20.3797C107.88 20.2577 107.784 20.1427 107.678 20.0358C107.245 19.6127 106.659 19.3752 106.047 19.3752C105.435 19.3752 104.849 19.6127 104.415 20.0358C104.31 20.1413 104.215 20.2565 104.132 20.3797C104.048 20.5024 103.977 20.6329 103.919 20.7693C103.803 21.0434 103.742 21.3371 103.741 21.6339C103.742 21.7816 103.757 21.929 103.787 22.0738C103.817 22.219 103.861 22.3608 103.919 22.4973C103.976 22.6344 104.047 22.765 104.132 22.887C104.214 23.0113 104.309 23.1267 104.415 23.2314C104.851 23.6517 105.436 23.889 106.047 23.8927ZM35.6137 54.1553C35.7647 54.1571 35.9154 54.1419 36.0628 54.1101C36.211 54.0812 36.3559 54.0377 36.4952 53.9802C36.6338 53.9237 36.7672 53.8557 36.8941 53.7769C37.0185 53.6919 37.1361 53.5975 37.2457 53.4946C37.3521 53.3899 37.4466 53.2742 37.5276 53.1496C37.6125 53.0273 37.6842 52.8967 37.7415 52.7599C37.8002 52.6235 37.8447 52.4816 37.8741 52.3364C37.9037 52.1913 37.9191 52.0438 37.9202 51.8959C37.9164 51.2975 37.6744 50.7241 37.2457 50.2978C37.1364 50.1946 37.0188 50.1002 36.8941 50.0154C36.7674 49.9367 36.6342 49.8687 36.4957 49.8121C36.3563 49.7551 36.2115 49.7118 36.0634 49.6828C35.6917 49.6116 35.3079 49.6304 34.9453 49.7375C34.5827 49.8447 34.2523 50.037 33.9829 50.2978C33.8772 50.4046 33.7808 50.5198 33.6947 50.6423C33.6119 50.7657 33.5405 50.8961 33.4813 51.0319C33.4241 51.1684 33.3816 51.3103 33.3545 51.4554C33.293 51.746 33.293 52.0458 33.3545 52.3364C33.3814 52.4815 33.4239 52.6235 33.4813 52.7599C33.5405 52.8957 33.6119 53.0261 33.6947 53.1496C33.7795 53.2732 33.876 53.3887 33.9829 53.4946C34.4179 53.9145 35.003 54.1516 35.6137 54.1553Z" fill="#FFDEF0"/>
<path d="M67.948 176.769C68.0988 176.768 68.2492 176.753 68.3971 176.724C68.5454 176.696 68.6903 176.652 68.8294 176.594C68.9692 176.538 69.1026 176.468 69.2278 176.385C69.3537 176.304 69.4714 176.212 69.5794 176.109C69.6846 176.003 69.779 175.888 69.8613 175.764C69.9463 175.642 70.0178 175.511 70.0746 175.374C70.1339 175.238 70.1786 175.096 70.2078 174.951C70.2693 174.66 70.2693 174.361 70.2078 174.07C70.1786 173.925 70.1339 173.783 70.0746 173.646C70.0178 173.51 69.9463 173.379 69.8613 173.257C69.779 173.133 69.6846 173.018 69.5794 172.912C69.4699 172.809 69.3523 172.715 69.2278 172.63C69.1011 172.551 68.9678 172.483 68.8294 172.427C68.6903 172.369 68.5454 172.325 68.3971 172.297C68.0254 172.225 67.6412 172.243 67.2784 172.35C66.9156 172.458 66.5854 172.651 66.3166 172.912C66.2111 173.019 66.1147 173.135 66.0284 173.257C65.9456 173.38 65.8742 173.511 65.8151 173.646C65.7581 173.783 65.7156 173.925 65.6883 174.07C65.6556 174.215 65.6401 174.362 65.6421 174.51C65.6418 174.807 65.7011 175.101 65.8169 175.375C65.9326 175.65 66.1025 175.899 66.3167 176.109C66.5309 176.318 66.7852 176.485 67.0652 176.598C67.3451 176.712 67.6451 176.77 67.948 176.769Z" fill="#FFABD1"/>
<path d="M134.009 41.546C136.154 41.0163 137.888 40.6837 139.264 40.473C138.55 39.5855 137.78 38.7423 136.958 37.9482C136.524 37.5266 136.278 36.9531 136.276 36.354C136.273 35.7549 136.513 35.1793 136.943 34.7537C137.374 34.3281 137.959 34.0875 138.571 34.0847C139.182 34.082 139.77 34.3173 140.205 34.739C141.49 35.9789 142.665 37.3249 143.715 38.762L147.028 35.52C147.239 35.2984 147.494 35.1208 147.776 34.9976C148.059 34.8745 148.364 34.8084 148.674 34.8032C148.983 34.7981 149.291 34.854 149.578 34.9677C149.864 35.0814 150.125 35.2505 150.344 35.4649C150.563 35.6794 150.735 35.9347 150.851 36.2159C150.967 36.497 151.024 36.7981 151.018 37.1012C151.013 37.4043 150.945 37.7033 150.82 37.9803C150.694 38.2573 150.512 38.5066 150.286 38.7134L147.035 41.9012L151.416 44.3972C151.678 44.5463 151.907 44.7445 152.09 44.9804C152.274 45.2163 152.408 45.4853 152.486 45.7721C152.563 46.0589 152.582 46.3578 152.542 46.6518C152.501 46.9458 152.402 47.2291 152.25 47.4855C152.098 47.742 151.895 47.9665 151.655 48.1464C151.414 48.3262 151.139 48.4579 150.846 48.5337C150.554 48.6096 150.248 48.6283 149.948 48.5886C149.648 48.549 149.359 48.4518 149.097 48.3027L144.757 45.8304C144.236 47.7552 143.702 49.6768 143.155 51.5949C143.076 51.8831 142.94 52.1531 142.754 52.3894C142.567 52.6256 142.335 52.8234 142.071 52.9713C141.806 53.1192 141.515 53.2143 141.212 53.2511C140.91 53.2879 140.603 53.2657 140.31 53.1858C140.016 53.1058 139.742 52.9697 139.503 52.7852C139.263 52.6008 139.063 52.3717 138.915 52.1112C138.766 51.8507 138.672 51.564 138.637 51.2676C138.602 50.9711 138.628 50.6709 138.712 50.3842C139.232 48.5581 139.741 46.729 140.238 44.8969C138.977 45.0822 137.293 45.395 135.136 45.9281C134.951 45.9736 134.76 45.9967 134.57 45.997C134.007 45.9973 133.463 45.7961 133.042 45.4311C132.62 45.0661 132.349 44.5627 132.28 44.0155C132.211 43.4684 132.348 42.9154 132.666 42.4608C132.985 42.0061 133.462 41.6811 134.008 41.5471L134.009 41.546Z" fill="#F982AA"/>
<path d="M131.006 115.236C132.198 115.151 133.383 114.992 134.554 114.761C134.144 114.065 133.643 113.424 133.066 112.854C132.851 112.644 132.682 112.395 132.566 112.121C132.45 111.847 132.39 111.553 132.39 111.256C132.391 110.96 132.45 110.666 132.566 110.392C132.682 110.118 132.852 109.869 133.066 109.659C133.28 109.449 133.535 109.283 133.814 109.17C134.094 109.056 134.394 108.998 134.697 108.998C135 108.998 135.299 109.056 135.579 109.17C135.859 109.283 136.113 109.45 136.327 109.66C136.959 110.279 137.53 110.957 138.031 111.682C138.456 111.204 138.906 110.748 139.378 110.315C139.6 110.107 139.862 109.945 140.149 109.837C140.436 109.73 140.742 109.68 141.049 109.69C141.356 109.7 141.657 109.77 141.936 109.896C142.215 110.022 142.465 110.201 142.673 110.423C142.88 110.644 143.04 110.905 143.143 111.188C143.247 111.471 143.291 111.772 143.274 112.072C143.257 112.372 143.179 112.666 143.045 112.937C142.911 113.207 142.722 113.448 142.491 113.646C142.483 113.654 142.042 114.056 141.498 114.663C142.454 114.943 143.386 115.296 144.286 115.717C144.559 115.845 144.803 116.025 145.005 116.246C145.207 116.468 145.362 116.726 145.462 117.005C145.563 117.285 145.605 117.582 145.588 117.878C145.572 118.174 145.495 118.464 145.364 118.732C145.233 118.999 145.049 119.238 144.823 119.436C144.597 119.634 144.334 119.786 144.048 119.884C143.763 119.982 143.46 120.024 143.157 120.008C142.855 119.991 142.559 119.916 142.286 119.788C141.494 119.418 140.67 119.118 139.824 118.891C139.806 119.926 139.854 120.961 139.97 121.99C140.035 122.583 139.858 123.176 139.478 123.641C139.098 124.107 138.546 124.406 137.941 124.474C137.337 124.543 136.73 124.374 136.252 124.006C135.774 123.638 135.463 123.099 135.389 122.508C135.265 121.424 135.205 120.334 135.209 119.244C133.94 119.48 132.657 119.645 131.368 119.739C131.307 119.744 131.246 119.746 131.185 119.746C130.59 119.744 130.018 119.517 129.59 119.113C129.162 118.708 128.91 118.157 128.887 117.575C128.864 116.992 129.072 116.424 129.467 115.988C129.861 115.552 130.413 115.282 131.006 115.236Z" fill="#F45885"/>
<path d="M90.4666 153.279L92.4457 153.104L92.0698 151.856C91.9797 151.57 91.9484 151.27 91.9777 150.972C92.007 150.675 92.0963 150.386 92.2405 150.122C92.3847 149.859 92.5809 149.626 92.8177 149.437C93.0545 149.248 93.3272 149.108 93.62 149.023C93.9128 148.938 94.2198 148.911 94.5232 148.944C94.8267 148.976 95.1206 149.067 95.3878 149.212C95.655 149.357 95.8902 149.552 96.0799 149.786C96.2695 150.02 96.4097 150.289 96.4925 150.577L96.828 151.69L98.3608 150.805C98.8876 150.5 99.5162 150.413 100.108 150.563C100.701 150.713 101.208 151.087 101.518 151.603C101.829 152.119 101.918 152.735 101.765 153.315C101.612 153.895 101.23 154.392 100.704 154.696L99.1569 155.589L100.475 156.911C100.686 157.124 100.853 157.375 100.966 157.65C101.078 157.926 101.134 158.22 101.13 158.517C101.127 158.813 101.063 159.106 100.944 159.379C100.825 159.652 100.652 159.898 100.435 160.106C100.219 160.313 99.9623 160.476 99.6812 160.586C99.4 160.697 99.0995 160.751 98.7967 160.748C98.4939 160.744 98.1948 160.682 97.9164 160.566C97.6381 160.449 97.386 160.279 97.1744 160.067L96.7709 159.663L96.4781 160.938C96.414 161.23 96.2916 161.506 96.1179 161.752C95.9442 161.997 95.7227 162.206 95.466 162.366C95.2094 162.527 94.9228 162.637 94.6228 162.688C94.3228 162.74 94.0153 162.733 93.7181 162.667C93.4209 162.602 93.1399 162.479 92.8913 162.307C92.6427 162.135 92.4315 161.916 92.2697 161.663C92.108 161.41 91.999 161.128 91.9491 160.834C91.8991 160.539 91.9092 160.238 91.9787 159.948L92.5096 157.633L90.88 157.777C90.8096 157.783 90.7393 157.786 90.6701 157.786C90.0776 157.784 89.5086 157.558 89.0811 157.157C88.6536 156.755 88.4004 156.207 88.3741 155.627C88.3478 155.047 88.5503 154.48 88.9397 154.042C89.3291 153.605 89.8755 153.331 90.4655 153.278L90.4666 153.279Z" fill="#F982AA"/>
<path d="M66.1108 113.414L69.3499 113.155L67.9214 109.664C67.8088 109.388 67.7526 109.094 67.7561 108.797C67.7596 108.501 67.8227 108.208 67.9418 107.935C68.0609 107.662 68.2337 107.415 68.4503 107.208C68.6669 107 68.923 106.837 69.2041 106.727C69.4852 106.616 69.7857 106.561 70.0885 106.565C70.3913 106.568 70.6904 106.63 70.9689 106.747C71.2473 106.863 71.4995 107.032 71.7111 107.245C71.9228 107.457 72.0897 107.708 72.2023 107.983L73.7161 111.682C74.8477 110.988 76.0351 110.385 77.2666 109.879C77.8348 109.664 78.4671 109.677 79.0251 109.917C79.5832 110.157 80.0217 110.603 80.2449 111.158C80.4681 111.714 80.4578 112.333 80.2162 112.881C79.9746 113.429 79.5214 113.861 78.9557 114.083C78.0052 114.483 77.0866 114.952 76.2076 115.487L79.7598 119.045C79.9761 119.256 80.1474 119.507 80.2637 119.783C80.3801 120.06 80.4392 120.356 80.4377 120.655C80.4362 120.955 80.3741 121.25 80.2549 121.526C80.1357 121.801 79.9619 122.051 79.7435 122.26C79.5251 122.469 79.2666 122.633 78.9828 122.744C78.699 122.854 78.3956 122.908 78.0903 122.903C77.785 122.897 77.4839 122.833 77.2043 122.712C76.9248 122.592 76.6724 122.418 76.4619 122.202L73.8937 119.628C73.5983 120.916 73.4292 122.23 73.3887 123.55C73.3935 124.149 73.1551 124.725 72.7262 125.152C72.2972 125.579 71.7127 125.821 71.1013 125.826H71.0822C70.4739 125.826 69.8901 125.591 69.4582 125.171C69.0263 124.751 68.7812 124.181 68.7764 123.585C68.8398 121.588 69.1188 119.603 69.6088 117.663L66.4878 117.914C66.4232 117.919 66.3598 117.921 66.2964 117.921C65.7021 117.92 65.1313 117.693 64.7033 117.289C64.2752 116.886 64.0228 116.335 63.9988 115.754C63.9748 115.172 64.181 114.604 64.5744 114.167C64.9677 113.731 65.5179 113.46 66.1102 113.412L66.1108 113.414Z" fill="#F45885"/>
<path d="M31.9664 148.449C32.1266 147.871 32.5146 147.379 33.045 147.081C33.5755 146.783 34.205 146.704 34.7952 146.861L38.0269 147.719V145.531C38.0269 144.932 38.2698 144.357 38.7023 143.934C39.1347 143.51 39.7212 143.272 40.3328 143.272C40.9443 143.272 41.5308 143.51 41.9633 143.934C42.3957 144.357 42.6386 144.932 42.6386 145.531V147.701L45.7164 146.864C46.0082 146.784 46.3131 146.762 46.6137 146.798C46.9143 146.834 47.2046 146.928 47.4682 147.074C47.7318 147.22 47.9634 147.416 48.1499 147.649C48.3363 147.883 48.474 148.15 48.555 148.436C48.6359 148.722 48.6586 149.021 48.6218 149.315C48.5849 149.61 48.4892 149.894 48.3401 150.152C48.191 150.411 47.9915 150.637 47.7529 150.82C47.5143 151.003 47.2413 151.138 46.9495 151.217L43.8579 152.058L45.5239 154.799C45.6788 155.054 45.7809 155.337 45.8244 155.63C45.8679 155.924 45.852 156.223 45.7775 156.51C45.703 156.798 45.5714 157.068 45.3903 157.306C45.2091 157.544 44.982 157.744 44.7217 157.896C44.4615 158.048 44.1733 158.148 43.8736 158.19C43.5739 158.233 43.2686 158.217 42.9751 158.144C42.6815 158.071 42.4055 157.943 42.1629 157.765C41.9202 157.588 41.7155 157.365 41.5607 157.11L40.3772 155.161L39.2663 157.072C39.1165 157.33 38.9163 157.557 38.6772 157.739C38.438 157.921 38.1646 158.055 37.8726 158.133C37.5806 158.212 37.2756 158.233 36.9751 158.196C36.6747 158.159 36.3845 158.065 36.1214 157.918C35.8582 157.771 35.6271 157.575 35.4413 157.341C35.2554 157.107 35.1186 156.839 35.0384 156.553C34.9582 156.267 34.9364 155.968 34.9741 155.674C35.0118 155.379 35.1083 155.095 35.2581 154.837L36.8555 152.088L33.5881 151.22C32.998 151.063 32.4956 150.683 32.1915 150.164C31.8874 149.644 31.8065 149.027 31.9664 148.449Z" fill="#F982AA"/>
</svg>
