<svg width="22" height="22" viewBox="0 0 22 22" fill="none" xmlns="http://www.w3.org/2000/svg">
<path d="M10.427 1.63301C10.747 0.78901 11.958 0.78901 12.279 1.63301L14.349 7.36701C14.4212 7.5538 14.5484 7.71429 14.7137 7.8273C14.879 7.94032 15.0747 8.00054 15.275 8.00001H20.362C21.302 8.00001 21.712 9.17001 20.973 9.74301L17.353 13C17.1908 13.1247 17.0723 13.2975 17.0145 13.4937C16.9566 13.6898 16.9624 13.8993 17.031 14.092L18.353 19.695C18.675 20.595 17.633 21.368 16.845 20.814L11.928 17.694C11.7596 17.5757 11.5588 17.5122 11.353 17.5122C11.1472 17.5122 10.9464 17.5757 10.778 17.694L5.86098 20.814C5.07398 21.368 4.03098 20.594 4.35298 19.695L5.67498 14.092C5.74356 13.8993 5.74934 13.6898 5.69149 13.4937C5.63364 13.2975 5.51514 13.1247 5.35298 13L1.73298 9.74301C0.992982 9.17001 1.40498 8.00001 2.34298 8.00001H7.42998C7.63027 8.00068 7.82605 7.94051 7.9914 7.82748C8.15675 7.71445 8.28389 7.55388 8.35598 7.36701L10.426 1.63301H10.427Z" fill="#FFD057" stroke="#FFD057" stroke-linecap="round" stroke-linejoin="round"/>
</svg>
